<?xml version="1.0" standalone="no"?>
<!DOCTYPE svg PUBLIC "-//W3C//DTD SVG 20010904//EN"
 "http://www.w3.org/TR/2001/REC-SVG-20010904/DTD/svg10.dtd">
<svg version="1.0" xmlns="http://www.w3.org/2000/svg"
 width="700.000000pt" height="700.000000pt" viewBox="0 0 700.000000 700.000000"
 preserveAspectRatio="xMidYMid meet">
<metadata>
Created by potrace 1.11, written by Peter Selinger 2001-2013
</metadata>
<g transform="translate(0.000000,700.000000) scale(0.100000,-0.100000)"
fill="#000000" stroke="none">
<path d="M3427 6674 c-1 -1 -36 -4 -77 -8 -75 -6 -92 -8 -185 -26 -27 -6 -59
-12 -71 -14 -39 -8 -179 -59 -229 -84 -149 -74 -307 -210 -395 -341 -116 -173
-194 -414 -217 -671 -13 -139 -5 -443 12 -525 3 -11 7 -31 9 -45 2 -14 7 -41
10 -60 3 -19 8 -46 10 -60 2 -14 16 -74 30 -135 33 -139 38 -159 37 -162 0 -2
6 -21 14 -44 8 -23 15 -45 15 -50 0 -5 -410 -9 -941 -9 -517 0 -938 -3 -936
-7 3 -5 1 -35 -3 -68 -5 -33 -11 -85 -15 -115 -3 -30 -8 -66 -10 -80 -2 -14
-7 -50 -10 -80 -3 -30 -8 -66 -10 -80 -6 -37 -13 -98 -20 -160 -4 -30 -8 -66
-10 -80 -4 -25 -18 -136 -31 -240 -4 -30 -8 -64 -9 -75 -2 -11 -6 -45 -9 -75
-4 -30 -9 -66 -11 -80 -2 -14 -7 -50 -10 -80 -4 -30 -8 -66 -10 -80 -2 -14 -7
-50 -10 -80 -3 -30 -7 -66 -10 -80 -2 -14 -7 -47 -10 -75 -6 -55 -15 -126 -20
-165 -11 -77 -15 -110 -20 -155 -3 -27 -10 -81 -15 -120 -5 -38 -11 -88 -14
-110 -3 -22 -12 -96 -21 -165 -8 -69 -18 -141 -20 -160 -2 -19 -13 -105 -24
-190 -11 -85 -23 -180 -26 -210 -3 -30 -8 -66 -10 -80 -2 -14 -7 -49 -10 -79
-4 -30 -8 -63 -10 -73 -2 -11 -7 -49 -10 -86 -4 -37 -10 -87 -15 -112 -4 -25
-8 -52 -8 -60 0 -15 -10 -95 -17 -140 -2 -14 -7 -52 -11 -85 -3 -33 -8 -68
-10 -78 -2 -10 -6 -45 -9 -78 -4 -33 -8 -69 -10 -80 -2 -11 -7 -47 -10 -80 -4
-33 -8 -70 -11 -82 -5 -28 -17 -134 -18 -167 l-1 -25 3498 0 3497 -1 -4 36
c-3 19 -8 62 -11 95 -6 63 -12 123 -20 190 -3 22 -7 67 -10 100 -3 33 -8 76
-10 95 -2 19 -7 60 -10 90 -3 30 -8 71 -10 90 -2 19 -6 58 -9 85 -13 127 -18
172 -21 200 -2 17 -7 62 -10 100 -3 39 -8 77 -10 85 -2 8 -7 47 -10 85 -3 39
-8 84 -10 100 -3 17 -7 57 -10 90 -3 33 -7 79 -10 103 -5 45 -12 107 -20 175
-2 23 -7 64 -10 91 -3 28 -8 75 -11 105 -3 31 -6 67 -9 81 -2 14 -7 61 -11
105 -3 44 -8 89 -10 100 -2 11 -6 47 -9 80 -4 33 -8 74 -10 90 -2 17 -7 64
-10 105 -4 41 -9 83 -10 92 -2 9 -6 48 -10 85 -3 37 -8 79 -10 93 -2 14 -7 57
-10 95 -4 39 -8 81 -10 95 -2 14 -7 57 -11 95 -3 39 -8 77 -9 86 -2 8 -6 53
-10 100 -4 46 -8 86 -10 89 -2 3 -6 43 -10 89 -4 47 -8 92 -10 100 -1 9 -6 50
-10 91 -4 41 -9 82 -10 90 -2 8 -6 53 -10 100 -4 47 -8 87 -10 90 -2 3 -6 39
-10 80 -13 148 -15 163 -19 167 -1 2 -424 3 -938 3 -514 0 -937 3 -940 6 -3 3
5 44 18 92 13 48 26 96 28 107 2 11 9 38 14 60 13 46 16 61 43 205 27 148 34
230 34 425 0 189 -5 243 -34 392 -111 558 -475 884 -1049 939 -67 6 -300 13
-305 8z m293 -643 c90 -28 184 -86 250 -152 72 -73 85 -90 126 -176 48 -99 67
-196 60 -309 -10 -162 -64 -282 -181 -400 -127 -128 -271 -188 -445 -187 -47
1 -98 3 -114 6 -118 24 -262 103 -341 189 -292 315 -196 814 192 999 35 17 92
37 126 45 85 19 243 12 327 -15z"/>
</g>
</svg>
